<?xml version="1.0" encoding="UTF-8" standalone="no"?>
<svg
   width="64"
   height="64"
   version="1.1"
   viewBox="0 0 16.933 16.933"
   id="svg5"
   sodipodi:docname="Reverse Shell Cheatsheet (copy 1).svg"
   inkscape:version="1.3.2 (091e20ef0f, 2023-11-25, custom)"
   xmlns:inkscape="http://www.inkscape.org/namespaces/inkscape"
   xmlns:sodipodi="http://sodipodi.sourceforge.net/DTD/sodipodi-0.dtd"
   xmlns="http://www.w3.org/2000/svg"
   xmlns:svg="http://www.w3.org/2000/svg">
  <sodipodi:namedview
     id="namedview5"
     pagecolor="#ffffff"
     bordercolor="#000000"
     borderopacity="0.25"
     inkscape:showpageshadow="2"
     inkscape:pageopacity="0.0"
     inkscape:pagecheckerboard="0"
     inkscape:deskcolor="#d1d1d1"
     inkscape:zoom="11.125"
     inkscape:cx="32"
     inkscape:cy="32"
     inkscape:window-width="1920"
     inkscape:window-height="1022"
     inkscape:window-x="0"
     inkscape:window-y="0"
     inkscape:window-maximized="1"
     inkscape:current-layer="g5" />
  <defs
     id="defs2">
    <linearGradient
       id="a"
       x1="47"
       x2="59.998"
       y1="41"
       y2="53.978"
       gradientTransform="scale(.26458)"
       gradientUnits="userSpaceOnUse">
      <stop
         offset="0"
         id="stop1" />
      <stop
         stop-color="#242424"
         stop-opacity="0"
         offset="1"
         id="stop2" />
    </linearGradient>
  </defs>
  <g
     transform="matrix(.99996 0 0 .99998 4.4628e-5 .53578)"
     id="g5">
    <path
       d="m 1.851,1.581 h 13.23 c 0.43935,0 0.79305,0.35689 0.79305,0.8002 v 11.1 c 0,0.44331 -0.3537,0.8002 -0.79305,0.8002 H 1.851 c -0.43935,0 -0.79305,-0.35689 -0.79305,-0.8002 v -11.1 c 0,-0.44331 0.3537,-0.8002 0.79305,-0.8002 z"
       fill="#4d4d4d"
       stroke="#1a1a1a"
       stroke-width="0.52917"
       id="path2"
       style="display:inline" />
    <path
       d="m 1.851,1.581 h 13.23 c 0.43935,0 0.79305,0.35689 0.79305,0.8002 v 11.1 c 0,0.44331 -0.3537,0.8002 -0.79305,0.8002 H 1.851 c -0.43935,0 -0.79305,-0.35689 -0.79305,-0.8002 v -11.1 c 0,-0.44331 0.3537,-0.8002 0.79305,-0.8002 z"
       fill="#4d4d4d"
       id="path3"
       style="display:inline;fill:#e35c58;fill-opacity:1" />
    <rect
       x="5.2919998"
       y="8.9899998"
       width="4.2329998"
       height="0.52899998"
       ry="0.26499999"
       fill="#55c66e"
       style="display:inline;paint-order:stroke markers fill;fill:#f9f9f9"
       id="rect3" />
    <path
       d="M 3.973,4.19 A 0.264,0.264 0 0 0 3.711,4.32 0.264,0.264 0 0 0 3.808,4.682 L 6.65,6.322 3.808,7.963 A 0.264,0.264 0 0 0 3.711,8.325 c 0.074,0.127 0.235,0.17 0.362,0.097 L 7.28,6.57 A 0.26,0.26 0 0 0 7.407,6.345 C 7.409,6.337 7.408,6.33 7.409,6.323 7.409,6.315 7.409,6.308 7.407,6.3 A 0.26,0.26 0 0 0 7.28,6.076 L 4.073,4.223 A 0.266,0.266 0 0 0 3.973,4.19 Z"
       fill="#55c66e"
       style="display:inline;paint-order:stroke markers fill;fill:#f9f9f9"
       id="path4" />
    <path
       d="m 15.875,8.944 -5.337,5.337 h 4.767 c 0.316,0 0.57,-0.238 0.57,-0.535 z"
       fill="url(#a)"
       opacity="0.15"
       id="path5"
       style="display:inline" />
  </g>
</svg>
